<svg width="150" height="27" viewBox="0 0 150 27" fill="none" xmlns="http://www.w3.org/2000/svg">
<mask id="mask0_12_76" style="mask-type:alpha" maskUnits="userSpaceOnUse" x="0" y="0" width="150" height="27">
<rect width="150" height="27" fill="#D9D9D9"/>
</mask>
<g mask="url(#mask0_12_76)">
<path d="M63.9588 25C58.8392 25 54.6888 20.8497 54.6888 15.73V10.48C54.6888 5.52603 58.7048 1.51002 63.6588 1.51002C65.9388 1.51002 67.7688 2.05002 69.1488 3.16002C70.5288 4.27002 71.2188 5.77002 71.2188 7.69002C71.2188 8.20002 71.1288 8.74002 70.9788 9.31002C70.9314 9.46531 70.8678 9.63177 70.7886 9.8052C70.1738 11.1521 70.4657 13.8927 71.2788 15.13C71.9688 16.18 72.2988 17.29 72.2988 18.43C72.2988 22.39 69.3888 25 63.9588 25ZM61.6488 4.84002C59.8263 4.84002 58.3488 6.31748 58.3488 8.14002C58.3488 9.96256 59.8263 11.44 61.6488 11.44H62.9688C65.9988 11.44 67.5288 10.03 67.5288 8.08002C67.5288 6.13002 66.1788 4.84002 63.1788 4.84002H61.6488ZM61.8438 14.68C59.9136 14.68 58.3488 16.2448 58.3488 18.175C58.3488 20.1053 59.9136 21.67 61.8438 21.67H64.0188C66.9888 21.67 68.6088 20.26 68.6088 18.13C68.6088 16.09 67.0188 14.68 63.7788 14.68H61.8438Z" fill="black"/>
<path d="M83.7701 14.14C83.7701 12.82 82.6301 11.74 80.6201 11.74C79.3854 11.74 78.3692 12.1224 77.59 12.8963C76.9391 13.5428 75.9501 13.9014 75.1536 13.4463C74.4444 13.0411 74.1457 12.1459 74.6162 11.4782C75.9488 9.58695 77.9859 8.65002 80.7101 8.65002C83.7101 8.65002 85.7201 9.73002 86.7101 11.92C87.0701 12.73 87.2501 13.69 87.2501 14.8V23.245C87.2501 24.2143 86.4644 25 85.4951 25H84.2151C83.9528 25 83.7401 24.7873 83.7401 24.525C83.7401 24.0432 83.0099 23.8066 82.6399 24.1152C81.7129 24.8883 80.5129 25.27 79.0301 25.27C77.4701 25.27 76.1801 24.82 75.1601 23.95C74.1401 23.08 73.6301 21.94 73.6301 20.56V20.38C73.6301 16.66 77.4701 15.49 80.2901 15.49H82.2701C83.2601 15.49 83.7701 15.04 83.7701 14.14ZM83.7401 18.52C83.7401 18.2384 83.5118 18.01 83.2301 18.01H80.2901C79.5401 18.01 78.8201 18.22 78.1601 18.61C77.5301 19 77.2001 19.54 77.2001 20.23C77.2001 21.55 78.2201 22.42 79.7501 22.42C82.1801 22.42 83.7401 20.92 83.7401 18.52Z" fill="black"/>
<path d="M107.086 16.93C107.086 19.18 106.336 21.13 104.836 22.78C103.336 24.43 101.446 25.24 99.136 25.24C98.236 25.24 97.246 25 96.196 24.52C95.8169 24.3467 95.473 24.15 95.1644 23.9298C94.7215 23.6139 93.856 23.9182 93.856 24.4622C93.856 24.7592 93.6152 25 93.3181 25H92.116C91.155 25 90.376 24.221 90.376 23.26V2.36502C90.376 1.37919 91.1751 0.580017 92.161 0.580017C93.1468 0.580017 93.946 1.37919 93.946 2.36502V8.27597C93.946 9.14597 95.4563 9.74273 96.256 9.40002C97.306 8.92002 98.296 8.68002 99.226 8.68002C101.566 8.68002 103.456 9.52002 104.896 11.2C106.366 12.88 107.086 14.8 107.086 16.93ZM95.206 13.36C94.336 14.35 93.886 15.55 93.886 16.96C93.886 18.37 94.336 19.57 95.206 20.56C96.106 21.52 97.276 22 98.686 22C100.096 22 101.266 21.52 102.136 20.56C103.036 19.57 103.486 18.37 103.486 16.96C103.486 15.55 103.036 14.35 102.136 13.36C101.266 12.37 100.096 11.89 98.686 11.89C97.276 11.89 96.106 12.37 95.206 13.36Z" fill="black"/>
<path d="M109.116 10.765C109.116 9.77919 109.915 8.98002 110.901 8.98002C111.887 8.98002 112.686 9.77919 112.686 10.765V17.95C112.686 20.35 113.856 21.94 116.226 21.94C118.476 21.94 119.916 20.32 119.916 17.89V10.765C119.916 9.77919 120.715 8.98002 121.701 8.98002C122.687 8.98002 123.486 9.77919 123.486 10.765V23.26C123.486 24.221 122.707 25 121.746 25H120.544C120.247 25 120.006 24.7591 120.006 24.462C120.006 23.9441 119.297 23.6893 118.898 24.0199C117.85 24.8895 116.593 25.33 115.116 25.33C111.246 25.33 109.116 22.66 109.116 18.82V10.765Z" fill="black"/>
<path d="M141.15 23.215C141.15 24.2008 140.351 25 139.365 25C138.379 25 137.58 24.2008 137.58 23.215V16.03C137.58 13.63 136.41 12.04 134.04 12.04C131.79 12.04 130.35 13.66 130.35 16.09V23.215C130.35 24.2008 129.551 25 128.565 25C127.579 25 126.78 24.2008 126.78 23.215V10.72C126.78 9.75904 127.559 8.98002 128.52 8.98002H129.722C130.019 8.98002 130.26 9.2209 130.26 9.51805C130.26 10.0359 130.969 10.2907 131.368 9.9601C132.416 9.09051 133.673 8.65002 135.15 8.65002C139.08 8.65002 141.15 11.29 141.15 15.13V23.215Z" fill="black"/>
<path d="M143.635 22.54C143.635 21.07 144.805 19.9 146.245 19.9C147.715 19.9 148.855 21.07 148.855 22.54C148.855 23.98 147.685 25.15 146.245 25.15C144.805 25.15 143.635 23.95 143.635 22.54Z" fill="black"/>
<path d="M3.52296 5.36735C-1.18412 10.7888 -0.604989 18.9994 4.81635 23.7064C10.2378 28.4135 18.4483 27.8344 23.1554 22.413C27.8625 16.9916 27.2834 8.78105 21.862 4.07396C16.4406 -0.633057 8.23005 -0.0540622 3.52296 5.36735Z" fill="#196164"/>
<path d="M24.6752 0.193491C24.2775 0.279964 24.1776 0.786807 24.485 1.05364C31.5744 7.20893 32.3316 17.946 26.1763 25.0354C25.9095 25.3427 26.0795 25.8305 26.4854 25.8603C30.4347 26.1501 34.467 24.6383 37.2629 21.4181C41.9699 15.9968 41.3909 7.78616 35.9695 3.07908C32.7493 0.283202 28.5448 -0.647751 24.6752 0.193491Z" fill="#C4F500"/>
</g>
</svg>
