<svg width="149" height="27" viewBox="0 0 149 27" fill="none" xmlns="http://www.w3.org/2000/svg">
<path d="M63.6196 25.1096C58.4999 25.1096 54.3496 20.9593 54.3496 15.8396V10.5896C54.3496 5.63564 58.3656 1.61963 63.3196 1.61963C65.5996 1.61963 67.4296 2.15964 68.8096 3.26964C70.1896 4.37964 70.8796 5.87964 70.8796 7.79964C70.8796 8.30964 70.7896 8.84964 70.6396 9.41964C70.5922 9.57493 70.5286 9.74139 70.4494 9.91482C69.8346 11.2617 70.1265 14.0023 70.9396 15.2396C71.6296 16.2896 71.9596 17.3996 71.9596 18.5396C71.9596 22.4996 69.0496 25.1096 63.6196 25.1096ZM61.3096 4.94964C59.4871 4.94964 58.0096 6.4271 58.0096 8.24964C58.0096 10.0722 59.4871 11.5496 61.3096 11.5496H62.6296C65.6596 11.5496 67.1896 10.1396 67.1896 8.18964C67.1896 6.23964 65.8396 4.94964 62.8396 4.94964H61.3096ZM61.5046 14.7896C59.5744 14.7896 58.0096 16.3544 58.0096 18.2846C58.0096 20.2149 59.5744 21.7796 61.5046 21.7796H63.6796C66.6496 21.7796 68.2696 20.3696 68.2696 18.2396C68.2696 16.1996 66.6796 14.7896 63.4396 14.7896H61.5046Z" fill="#1C3A32"/>
<path d="M83.4309 14.2496C83.4309 12.9296 82.2909 11.8496 80.2809 11.8496C79.0462 11.8496 78.03 12.232 77.2507 13.006C76.5999 13.6524 75.6108 14.011 74.8144 13.5559C74.1052 13.1507 73.8064 12.2555 74.2769 11.5878C75.6096 9.69657 77.6467 8.75964 80.3709 8.75964C83.3709 8.75964 85.3809 9.83964 86.3709 12.0296C86.7309 12.8396 86.9109 13.7996 86.9109 14.9096V23.3546C86.9109 24.3239 86.1251 25.1096 85.1559 25.1096H83.8759C83.6135 25.1096 83.4009 24.897 83.4009 24.6346C83.4009 24.1528 82.6707 23.9162 82.3007 24.2248C81.3737 24.9979 80.1737 25.3796 78.6909 25.3796C77.1309 25.3796 75.8409 24.9296 74.8209 24.0596C73.8009 23.1896 73.2909 22.0496 73.2909 20.6696V20.4896C73.2909 16.7696 77.1309 15.5996 79.9509 15.5996H81.9309C82.9209 15.5996 83.4309 15.1496 83.4309 14.2496ZM83.4009 18.6296C83.4009 18.348 83.1725 18.1196 82.8909 18.1196H79.9509C79.2009 18.1196 78.4809 18.3296 77.8209 18.7196C77.1909 19.1096 76.8609 19.6496 76.8609 20.3396C76.8609 21.6596 77.8809 22.5296 79.4109 22.5296C81.8409 22.5296 83.4009 21.0296 83.4009 18.6296Z" fill="#1C3A32"/>
<path d="M106.747 17.0396C106.747 19.2896 105.997 21.2396 104.497 22.8896C102.997 24.5396 101.107 25.3496 98.7967 25.3496C97.8967 25.3496 96.9067 25.1096 95.8567 24.6296C95.4777 24.4564 95.1338 24.2596 94.8251 24.0394C94.3823 23.7235 93.5167 24.0278 93.5167 24.5718C93.5167 24.8688 93.2759 25.1096 92.9789 25.1096H91.7767C90.8157 25.1096 90.0367 24.3306 90.0367 23.3696V2.47464C90.0367 1.48881 90.8359 0.689636 91.8217 0.689636C92.8075 0.689636 93.6067 1.48881 93.6067 2.47464V8.38559C93.6067 9.25559 95.1171 9.85234 95.9167 9.50963C96.9667 9.02964 97.9567 8.78964 98.8867 8.78964C101.227 8.78964 103.117 9.62963 104.557 11.3096C106.027 12.9896 106.747 14.9096 106.747 17.0396ZM94.8667 13.4696C93.9967 14.4596 93.5467 15.6596 93.5467 17.0696C93.5467 18.4796 93.9967 19.6796 94.8667 20.6696C95.7667 21.6296 96.9367 22.1096 98.3467 22.1096C99.7567 22.1096 100.927 21.6296 101.797 20.6696C102.697 19.6796 103.147 18.4796 103.147 17.0696C103.147 15.6596 102.697 14.4596 101.797 13.4696C100.927 12.4796 99.7567 11.9996 98.3467 11.9996C96.9367 11.9996 95.7667 12.4796 94.8667 13.4696Z" fill="#1C3A32"/>
<path d="M108.777 10.8746C108.777 9.88881 109.576 9.08964 110.562 9.08964C111.547 9.08964 112.347 9.88881 112.347 10.8746V18.0596C112.347 20.4596 113.517 22.0496 115.887 22.0496C118.137 22.0496 119.577 20.4296 119.577 17.9996V10.8746C119.577 9.88881 120.376 9.08964 121.362 9.08964C122.347 9.08964 123.147 9.88881 123.147 10.8746V23.3696C123.147 24.3306 122.368 25.1096 121.407 25.1096H120.205C119.908 25.1096 119.667 24.8688 119.667 24.5716C119.667 24.0538 118.958 23.7989 118.559 24.1296C117.511 24.9991 116.254 25.4396 114.777 25.4396C110.907 25.4396 108.777 22.7696 108.777 18.9296V10.8746Z" fill="#1C3A32"/>
<path d="M140.811 23.3246C140.811 24.3105 140.012 25.1096 139.026 25.1096C138.04 25.1096 137.241 24.3105 137.241 23.3246V16.1396C137.241 13.7396 136.071 12.1496 133.701 12.1496C131.451 12.1496 130.011 13.7696 130.011 16.1996V23.3246C130.011 24.3105 129.212 25.1096 128.226 25.1096C127.24 25.1096 126.441 24.3105 126.441 23.3246V10.8296C126.441 9.86866 127.22 9.08964 128.181 9.08964H129.383C129.68 9.08964 129.921 9.33052 129.921 9.62767C129.921 10.1455 130.63 10.4004 131.029 10.0697C132.077 9.20013 133.334 8.75964 134.811 8.75964C138.741 8.75964 140.811 11.3996 140.811 15.2396V23.3246Z" fill="#1C3A32"/>
<path d="M143.295 22.6496C143.295 21.1796 144.465 20.0096 145.905 20.0096C147.375 20.0096 148.515 21.1796 148.515 22.6496C148.515 24.0896 147.345 25.2596 145.905 25.2596C144.465 25.2596 143.295 24.0596 143.295 22.6496Z" fill="#1C3A32"/>
<path d="M3.18388 5.47154C-1.52321 10.8924 -0.944074 19.102 4.47727 23.8085C9.89868 28.5151 18.1092 27.9361 22.8163 22.5153C27.5234 17.0945 26.9443 8.88486 21.5229 4.17829C16.1016 -0.528209 7.89096 0.0507221 3.18388 5.47154Z" fill="#CFFF45"/>
<path d="M24.3361 0.298235C23.9384 0.384698 23.8386 0.891485 24.1459 1.15829C31.2353 7.3129 31.9926 18.0488 25.8372 25.1374C25.5704 25.4447 25.7405 25.9324 26.1463 25.9622C30.0957 26.252 34.1279 24.7403 36.9238 21.5205C41.6308 16.0998 41.0518 7.89007 35.6304 3.1835C32.4102 0.387936 28.2057 -0.542914 24.3361 0.298235Z" fill="#186560"/>
</svg>
