<svg width="149" height="28" viewBox="0 0 149 28" fill="none" xmlns="http://www.w3.org/2000/svg">
<path d="M63.6196 26C58.4999 26 54.3496 21.8497 54.3496 16.73V11.48C54.3496 6.526 58.3656 2.50999 63.3196 2.50999C65.5996 2.50999 67.4296 3.04999 68.8096 4.15999C70.1896 5.26999 70.8796 6.76999 70.8796 8.68999C70.8796 9.19999 70.7896 9.73999 70.6396 10.31C70.5922 10.4653 70.5286 10.6317 70.4494 10.8052C69.8346 12.1521 70.1265 14.8926 70.9396 16.13C71.6296 17.18 71.9596 18.29 71.9596 19.43C71.9596 23.39 69.0496 26 63.6196 26ZM61.3096 5.83999C59.4871 5.83999 58.0096 7.31745 58.0096 9.13999C58.0096 10.9625 59.4871 12.44 61.3096 12.44H62.6296C65.6596 12.44 67.1896 11.03 67.1896 9.07999C67.1896 7.12999 65.8396 5.83999 62.8396 5.83999H61.3096ZM61.5046 15.68C59.5744 15.68 58.0096 17.2448 58.0096 19.175C58.0096 21.1052 59.5744 22.67 61.5046 22.67H63.6796C66.6496 22.67 68.2696 21.26 68.2696 19.13C68.2696 17.09 66.6796 15.68 63.4396 15.68H61.5046Z" fill="black"/>
<path d="M83.4309 15.14C83.4309 13.82 82.2909 12.74 80.2809 12.74C79.0462 12.74 78.03 13.1224 77.2507 13.8963C76.5999 14.5427 75.6108 14.9014 74.8144 14.4463C74.1052 14.041 73.8064 13.1458 74.2769 12.4781C75.6096 10.5869 77.6467 9.64999 80.3709 9.64999C83.3709 9.64999 85.3809 10.73 86.3709 12.92C86.7309 13.73 86.9109 14.69 86.9109 15.8V24.245C86.9109 25.2142 86.1251 26 85.1559 26H83.8759C83.6135 26 83.4009 25.7873 83.4009 25.525C83.4009 25.0432 82.6707 24.8066 82.3007 25.1151C81.3737 25.8883 80.1737 26.27 78.6909 26.27C77.1309 26.27 75.8409 25.82 74.8209 24.95C73.8009 24.08 73.2909 22.94 73.2909 21.56V21.38C73.2909 17.66 77.1309 16.49 79.9509 16.49H81.9309C82.9209 16.49 83.4309 16.04 83.4309 15.14ZM83.4009 19.52C83.4009 19.2383 83.1725 19.01 82.8909 19.01H79.9509C79.2009 19.01 78.4809 19.22 77.8209 19.61C77.1909 20 76.8609 20.54 76.8609 21.23C76.8609 22.55 77.8809 23.42 79.4109 23.42C81.8409 23.42 83.4009 21.92 83.4009 19.52Z" fill="black"/>
<path d="M106.747 17.93C106.747 20.18 105.997 22.13 104.497 23.78C102.997 25.43 101.107 26.24 98.7967 26.24C97.8967 26.24 96.9067 26 95.8567 25.52C95.4777 25.3467 95.1338 25.15 94.8251 24.9298C94.3823 24.6138 93.5167 24.9182 93.5167 25.4622C93.5167 25.7592 93.2759 26 92.9789 26H91.7767C90.8157 26 90.0367 25.221 90.0367 24.26V3.36499C90.0367 2.37916 90.8359 1.57999 91.8217 1.57999C92.8075 1.57999 93.6067 2.37916 93.6067 3.36499V9.27594C93.6067 10.1459 95.1171 10.7427 95.9167 10.4C96.9667 9.91999 97.9567 9.67999 98.8867 9.67999C101.227 9.67999 103.117 10.52 104.557 12.2C106.027 13.88 106.747 15.8 106.747 17.93ZM94.8667 14.36C93.9967 15.35 93.5467 16.55 93.5467 17.96C93.5467 19.37 93.9967 20.57 94.8667 21.56C95.7667 22.52 96.9367 23 98.3467 23C99.7567 23 100.927 22.52 101.797 21.56C102.697 20.57 103.147 19.37 103.147 17.96C103.147 16.55 102.697 15.35 101.797 14.36C100.927 13.37 99.7567 12.89 98.3467 12.89C96.9367 12.89 95.7667 13.37 94.8667 14.36Z" fill="black"/>
<path d="M108.777 11.765C108.777 10.7792 109.576 9.97999 110.562 9.97999C111.547 9.97999 112.347 10.7792 112.347 11.765V18.95C112.347 21.35 113.517 22.94 115.887 22.94C118.137 22.94 119.577 21.32 119.577 18.89V11.765C119.577 10.7792 120.376 9.97999 121.362 9.97999C122.347 9.97999 123.147 10.7792 123.147 11.765V24.26C123.147 25.221 122.368 26 121.407 26H120.205C119.908 26 119.667 25.7591 119.667 25.462C119.667 24.9441 118.958 24.6893 118.559 25.0199C117.511 25.8895 116.254 26.33 114.777 26.33C110.907 26.33 108.777 23.66 108.777 19.82V11.765Z" fill="black"/>
<path d="M140.811 24.215C140.811 25.2008 140.012 26 139.026 26C138.04 26 137.241 25.2008 137.241 24.215V17.03C137.241 14.63 136.071 13.04 133.701 13.04C131.451 13.04 130.011 14.66 130.011 17.09V24.215C130.011 25.2008 129.212 26 128.226 26C127.24 26 126.441 25.2008 126.441 24.215V11.72C126.441 10.759 127.22 9.97999 128.181 9.97999H129.383C129.68 9.97999 129.921 10.2209 129.921 10.518C129.921 11.0359 130.63 11.2907 131.029 10.9601C132.077 10.0905 133.334 9.64999 134.811 9.64999C138.741 9.64999 140.811 12.29 140.811 16.13V24.215Z" fill="black"/>
<path d="M143.295 23.54C143.295 22.07 144.465 20.9 145.905 20.9C147.375 20.9 148.515 22.07 148.515 23.54C148.515 24.98 147.345 26.15 145.905 26.15C144.465 26.15 143.295 24.95 143.295 23.54Z" fill="black"/>
<path d="M3.18388 6.36186C-1.52321 11.7827 -0.944074 19.9924 4.47727 24.6989C9.89868 29.4054 18.1092 28.8264 22.8163 23.4056C27.5234 17.9848 26.9443 9.77518 21.5229 5.06861C16.1016 0.362111 7.89096 0.941042 3.18388 6.36186Z" fill="#FFDB1E"/>
<path d="M24.3361 1.18855C23.9384 1.27502 23.8386 1.7818 24.1459 2.0486C31.2353 8.20322 31.9926 18.9391 25.8372 26.0277C25.5704 26.335 25.7405 26.8227 26.1463 26.8525C30.0957 27.1423 34.1279 25.6306 36.9238 22.4108C41.6308 16.9901 41.0518 8.78039 35.6304 4.07382C32.4102 1.27826 28.2057 0.347406 24.3361 1.18855Z" fill="#186560"/>
</svg>
