<svg width="51" height="57" viewBox="0 0 51 57" fill="none" xmlns="http://www.w3.org/2000/svg">
<path fill-rule="evenodd" clip-rule="evenodd" d="M25.1071 0L27.7216 21.4339C27.8461 22.4702 28.2611 23.4124 28.9251 24.1661C29.5891 24.9198 30.4191 25.3909 31.3321 25.5322L50.2143 28.5L31.3321 31.4678C30.4191 31.6091 29.5891 32.0802 28.9251 32.8339C28.2611 33.5876 27.8461 34.5298 27.7216 35.5661L25.1071 57L22.4927 35.5661C22.3682 34.5298 21.9532 33.5876 21.2892 32.8339C20.6252 32.0802 19.7952 31.6091 18.8822 31.4678L0 28.5L18.8822 25.5322C19.7952 25.3909 20.6252 24.9198 21.2892 24.1661C21.9532 23.4124 22.3682 22.4702 22.4927 21.4339L25.1071 0Z" fill="#29594B"/>
<path fill-rule="evenodd" clip-rule="evenodd" d="M25.1071 0L27.7216 21.4339C27.8461 22.4702 28.2611 23.4124 28.9251 24.1661C29.5891 24.9198 30.4191 25.3909 31.3321 25.5322L50.2143 28.5L31.3321 31.4678C30.4191 31.6091 29.5891 32.0802 28.9251 32.8339C28.2611 33.5876 27.8461 34.5298 27.7216 35.5661L25.1071 57L22.4927 35.5661C22.3682 34.5298 21.9532 33.5876 21.2892 32.8339C20.6252 32.0802 19.7952 31.6091 18.8822 31.4678L0 28.5L18.8822 25.5322C19.7952 25.3909 20.6252 24.9198 21.2892 24.1661C21.9532 23.4124 22.3682 22.4702 22.4927 21.4339L25.1071 0Z" fill="#29594B"/>
</svg>
