<svg width="1355" height="182" viewBox="0 0 1355 182" fill="none" xmlns="http://www.w3.org/2000/svg">
<path fill-rule="evenodd" clip-rule="evenodd" d="M14.5 149L16.0099 161.379C16.0818 161.977 16.3215 162.521 16.7049 162.957C17.0884 163.392 17.5678 163.664 18.095 163.746L29 165.459L18.095 167.173C17.5678 167.255 17.0884 167.527 16.7049 167.962C16.3215 168.398 16.0818 168.942 16.0099 169.54L14.5 181.919L12.9901 169.54C12.9182 168.942 12.6785 168.398 12.2951 167.962C11.9116 167.527 11.4322 167.255 10.905 167.173L0 165.459L10.905 163.746C11.4322 163.664 11.9116 163.392 12.2951 162.957C12.6785 162.521 12.9182 161.977 12.9901 161.379L14.5 149Z" fill="#29594B"/>
<path fill-rule="evenodd" clip-rule="evenodd" d="M14.5 149L16.0099 161.379C16.0818 161.977 16.3215 162.521 16.7049 162.957C17.0884 163.392 17.5678 163.664 18.095 163.746L29 165.459L18.095 167.173C17.5678 167.255 17.0884 167.527 16.7049 167.962C16.3215 168.398 16.0818 168.942 16.0099 169.54L14.5 181.919L12.9901 169.54C12.9182 168.942 12.6785 168.398 12.2951 167.962C11.9116 167.527 11.4322 167.255 10.905 167.173L0 165.459L10.905 163.746C11.4322 163.664 11.9116 163.392 12.2951 162.957C12.6785 162.521 12.9182 161.977 12.9901 161.379L14.5 149Z" fill="#29594B"/>
<path fill-rule="evenodd" clip-rule="evenodd" d="M1320.5 0L1324.09 29.7066C1324.26 31.143 1324.83 32.4488 1325.75 33.4934C1326.66 34.538 1327.8 35.1909 1329.05 35.3868L1355 39.5L1329.05 43.6132C1327.8 43.8091 1326.66 44.462 1325.75 45.5066C1324.83 46.5513 1324.26 47.857 1324.09 49.2934L1320.5 79L1316.91 49.2934C1316.74 47.857 1316.17 46.5513 1315.25 45.5066C1314.34 44.462 1313.2 43.8091 1311.95 43.6132L1286 39.5L1311.95 35.3868C1313.2 35.1909 1314.34 34.538 1315.25 33.4934C1316.17 32.4488 1316.74 31.143 1316.91 29.7066L1320.5 0Z" fill="#29594B"/>
<path fill-rule="evenodd" clip-rule="evenodd" d="M1320.5 0L1324.09 29.7066C1324.26 31.143 1324.83 32.4488 1325.75 33.4934C1326.66 34.538 1327.8 35.1909 1329.05 35.3868L1355 39.5L1329.05 43.6132C1327.8 43.8091 1326.66 44.462 1325.75 45.5066C1324.83 46.5513 1324.26 47.857 1324.09 49.2934L1320.5 79L1316.91 49.2934C1316.74 47.857 1316.17 46.5513 1315.25 45.5066C1314.34 44.462 1313.2 43.8091 1311.95 43.6132L1286 39.5L1311.95 35.3868C1313.2 35.1909 1314.34 34.538 1315.25 33.4934C1316.17 32.4488 1316.74 31.143 1316.91 29.7066L1320.5 0Z" fill="#29594B"/>
</svg>
