<svg width="78" height="86" viewBox="0 0 78 86" fill="none" xmlns="http://www.w3.org/2000/svg">
<path d="M76.5 67.9999L42.3845 83.1624C40.2298 84.12 37.7702 84.12 35.6155 83.1624L1.5 67.9999M76.5 47.1666L42.3845 62.3291C40.2298 63.2867 37.7702 63.2867 35.6155 62.3291L1.5 47.1666M4.78689 25.8934L35.2732 41.1366C37.6193 42.3096 40.3807 42.3096 42.7268 41.1366L73.2131 25.8934C76.2841 24.3579 76.2841 19.9753 73.2131 18.4398L42.7268 3.19667C40.3807 2.02364 37.6193 2.02364 35.2732 3.19667L4.7869 18.4398C1.71587 19.9753 1.71586 24.3579 4.78689 25.8934Z" stroke="#29594B" stroke-width="3" stroke-linecap="round" stroke-linejoin="round"/>
</svg>
