<svg width="87" height="88" viewBox="0 0 87 88" fill="none" xmlns="http://www.w3.org/2000/svg">
<path d="M85.3333 43.9997C85.3333 67.0115 66.6785 85.6664 43.6667 85.6664M85.3333 43.9997C85.3333 20.9878 66.6785 2.33301 43.6667 2.33301M85.3333 43.9997C85.3333 37.0961 66.6785 31.4997 43.6667 31.4997C20.6548 31.4997 2 37.0961 2 43.9997M85.3333 43.9997C85.3333 50.9032 66.6785 56.4997 43.6667 56.4997C20.6548 56.4997 2 50.9032 2 43.9997M43.6667 85.6664C20.6548 85.6664 2 67.0115 2 43.9997M43.6667 85.6664C52.8714 85.6664 60.3333 67.0115 60.3333 43.9997C60.3333 20.9878 52.8714 2.33301 43.6667 2.33301M43.6667 85.6664C34.4619 85.6664 27 67.0115 27 43.9997C27 20.9878 34.4619 2.33301 43.6667 2.33301M2 43.9997C2 20.9878 20.6548 2.33301 43.6667 2.33301" stroke="#29594B" stroke-width="3"/>
</svg>
