<svg width="89" height="91" viewBox="0 0 89 91" fill="none" xmlns="http://www.w3.org/2000/svg">
<path d="M2 0.5C2.82843 0.5 3.5 1.17157 3.5 2V73C3.5 81.0081 9.99187 87.5 18 87.5H88.5V90.5H18C8.33502 90.5 0.5 82.665 0.5 73V2C0.5 1.17157 1.17157 0.5 2 0.5Z" fill="#29594B"/>
<path d="M68.5745 35.3425L57.4542 52.0229C54.8657 55.9056 49.1505 55.8767 46.6014 51.9681L40.2338 42.2044C38.8007 40.0069 35.5487 40.1091 34.2563 42.3923L23.3054 61.7389C22.8973 62.4598 21.982 62.7135 21.2611 62.3054C20.5402 61.8973 20.2865 60.982 20.6946 60.2611L31.6455 40.9145C34.0456 36.6743 40.0851 36.4845 42.7467 40.5656L49.1142 50.3292C50.4868 52.4339 53.5643 52.4495 54.958 50.3588L65.8638 34.0001L56.2281 35.4826C55.4093 35.6085 54.6434 35.0469 54.5174 34.2281C54.3915 33.4093 54.9531 32.6434 55.7719 32.5174L67.9489 30.6441C69.141 30.4607 70.2941 31.1545 70.6903 32.2937L74.4167 43.0072C74.6889 43.7897 74.2752 44.6446 73.4928 44.9167C72.7103 45.1889 71.8554 44.7752 71.5833 43.9928L68.5745 35.3425Z" fill="#29594B"/>
</svg>
