<svg width="88" height="88" viewBox="0 0 88 88" fill="none" xmlns="http://www.w3.org/2000/svg">
<path d="M6.6359 35.6663L81.3615 35.6663C85.6119 35.6663 87.2811 30.0354 83.7445 27.6271L48.7646 3.80697C45.8786 1.84169 42.1188 1.84169 39.2328 3.80697L4.25293 27.6271C0.716349 30.0354 2.38546 35.6663 6.6359 35.6663Z" stroke="#29594B" stroke-width="3"/>
<path d="M10.666 35.6665H31.4993V68.9998H10.666V35.6665Z" stroke="#29594B" stroke-width="3"/>
<path d="M56.499 35.6664H77.3324V68.9998H56.499V35.6664Z" stroke="#29594B" stroke-width="3"/>
<path d="M76.7146 68.9998C77.0934 68.9998 77.4397 69.2138 77.6091 69.5525L84.9424 84.2192C85.2749 84.8841 84.7914 85.6664 84.048 85.6664L3.95071 85.6664C3.20733 85.6664 2.72383 84.8841 3.05628 84.2192L10.3896 69.5525C10.559 69.2138 10.9053 68.9998 11.284 68.9998H76.7146Z" stroke="#29594B" stroke-width="3"/>
</svg>
