<?xml version="1.0" encoding="UTF-8"?>
<!DOCTYPE svg PUBLIC "-//W3C//DTD SVG 1.1//EN" "http://www.w3.org/Graphics/SVG/1.1/DTD/svg11.dtd">
<!-- Creator: CorelDRAW X7 -->
<svg xmlns="http://www.w3.org/2000/svg" xml:space="preserve" width="155.347mm" height="180.443mm" version="1.1" style="shape-rendering:geometricPrecision; text-rendering:geometricPrecision; image-rendering:optimizeQuality; fill-rule:evenodd; clip-rule:evenodd"
viewBox="0 0 15549 18061"
 xmlns:xlink="http://www.w3.org/1999/xlink">
 <defs>
  <style type="text/css">
   <![CDATA[
    .fil0 {fill:#FEFEFE}
   ]]>
  </style>
 </defs>
 <g id="Layer_x0020_1">
  <metadata id="CorelCorpID_0Corel-Layer"/>
  <g id="_2038835642864">
   <path class="fil0" d="M13148 9930c1291,595 2281,1992 2387,3422 316,4251 -4792,6349 -7560,3181 -1955,-244 -4185,138 -6133,-55 -926,-92 -1763,-975 -1842,-1895l0 -12616c120,-961 927,-1798 1900,-1895 2282,-227 4922,170 7242,-4l282 69 3661 3696 56 294 7 5803 0 0zm-943 -5480l-3124 0c-41,0 -321,-236 -321,-262l0 -3153c0,-7 -81,-88 -88,-88l-6597 0c-566,0 -1210,680 -1200,1253l3 12205c-29,474 628,1198 1080,1198l5401 0c-1499,-3195 1409,-6838 4846,-6014l0 -5139 0 0zm-701 -934l-1868 -1868 0 1868 1868 0zm3147 10256c0,-1871 -1517,-3388 -3387,-3388 -1871,0 -3387,1517 -3387,3388 0,1870 1516,3387 3387,3387 1870,0 3387,-1517 3387,-3387z"/>
   <path class="fil0" d="M3255 1310c950,60 2098,-123 3025,-14 142,17 346,104 406,236 60,133 61,2107 31,2365 -36,304 -154,356 -436,381 -966,88 -2061,-73 -3042,0 -262,-16 -351,-270 -377,-499 -49,-430 -48,-1496 0,-1927 30,-262 129,-456 392,-542l1 0zm2586 922l-2044 0 0 1167 2044 0 0 -1167z"/>
   <path class="fil0" d="M2437 5339l8163 -14c486,-2 549,821 60,880l-8178 -2c-507,-20 -519,-758 -45,-864l0 0z"/>
   <path class="fil0" d="M2497 7442l6526 -14c633,4 689,863 59,936l-6542 0c-561,-51 -606,-828 -43,-922z"/>
   <path class="fil0" d="M2379 9601l5418 -14c526,19 522,863 0,879l-5372 -3c-407,-102 -459,-768 -47,-862l1 0z"/>
   <path class="fil0" d="M6702 12493c-83,76 -358,124 -479,134 -895,75 -2678,85 -3563,-3 -766,-76 -712,-845 -173,-931 1206,126 2805,-180 3963,0 388,61 506,563 252,799l0 1z"/>
   <path class="fil0" d="M6466 13926c294,293 104,755 -303,802 -1133,132 -2517,-98 -3676,-5 -507,-79 -581,-853 113,-930 761,-86 2743,-87 3504,-2 97,10 298,70 362,135l0 0z"/>
   <path class="fil0" d="M12831 12109c381,-79 727,345 507,686l-2571 2566c-170,103 -341,89 -511,0 -107,-55 -942,-901 -1019,-1024 -156,-248 -187,-470 76,-662 516,-376 813,448 1141,617 45,23 72,39 115,0 426,-300 1899,-2108 2262,-2183l0 0z"/>
  </g>
 </g>
</svg>
