<?xml version="1.0" encoding="UTF-8"?>
<!DOCTYPE svg PUBLIC "-//W3C//DTD SVG 1.1//EN" "http://www.w3.org/Graphics/SVG/1.1/DTD/svg11.dtd">
<!-- Creator: CorelDRAW X7 -->
<svg xmlns="http://www.w3.org/2000/svg" xml:space="preserve" width="154.383mm" height="197.022mm" version="1.1" style="shape-rendering:geometricPrecision; text-rendering:geometricPrecision; image-rendering:optimizeQuality; fill-rule:evenodd; clip-rule:evenodd"
viewBox="0 0 15451 19719"
 xmlns:xlink="http://www.w3.org/1999/xlink">
 <defs>
  <style type="text/css">
   <![CDATA[
    .fil0 {fill:#FEFEFE}
   ]]>
  </style>
 </defs>
 <g id="Layer_x0020_1">
  <metadata id="CorelCorpID_0Corel-Layer"/>
  <path class="fil0" d="M11085 1450c737,49 1553,-64 2280,-1 829,71 1606,765 1799,1567 155,4399 26,8826 66,13235 31,338 335,429 175,911 -33,100 -146,181 -165,245 -44,152 -16,467 -61,678 -182,853 -951,1533 -1816,1632l-11495 2c-954,-103 -1720,-840 -1866,-1788l-2 -14656c113,-943 912,-1745 1868,-1827 714,-61 1515,48 2239,2 -4,-303 -54,-503 306,-536 480,-44 1026,35 1514,4 640,-1242 2699,-1203 3379,-9l1627 15c220,101 143,328 152,526l0 0zm-451 1683l0 -1703c0,-4 -58,-61 -62,-61l-1601 0c-77,0 -154,-326 -207,-409 -397,-617 -1744,-615 -2235,-104 -148,155 -151,377 -308,513l-1621 0 0 1765 6034 0 0 -1zm-6527 -1231l-2196 0c-692,0 -1463,850 -1457,1540l-2 14245c78,919 711,1512 1621,1581l11126 -2c706,-63 1413,-582 1499,-1313 -134,99 -278,175 -450,186 -105,6 -312,-69 -325,-59 -6,5 -29,84 -64,120 -213,221 -384,337 -701,368l-9317 0c-935,-839 -1769,-1821 -2651,-2727l-41 -164 2 -12236c10,-352 453,-841 801,-841l2155 0 0 -698 0 0zm10632 13957l0 -12623c0,-571 -901,-1334 -1457,-1334l-2196 0 0 698 2196 0c17,0 288,108 322,129 191,113 403,411 434,634l1 11739c27,196 544,593 700,757l0 0zm-13095 -12500l0 12130 1745 0c220,0 718,501 718,718l0 1868 9174 0c57,0 309,-225 249,-328 -281,-387 -1472,-1280 -1566,-1681 -36,-157 25,-217 21,-314 -2,-55 -682,-758 -754,-799 -86,-49 -171,-37 -258,-71 -62,-24 -164,-117 -196,-119 -35,-2 -524,247 -645,285 -799,252 -1653,198 -2432,-95 -1562,-102 -3306,141 -4847,4 -151,-14 -300,-48 -308,-226l3 -5707c19,-102 119,-188 223,-188l4187 0c2852,-1999 6595,749 5400,4088 -38,106 -236,471 -240,499 -9,54 76,114 96,177 28,83 33,181 71,258 30,61 720,770 771,790 61,25 168,-29 261,-20 94,8 174,80 272,81l0 -11268c0,-33 -140,-233 -184,-268 -90,-71 -135,-73 -245,-83 -658,-60 -1408,49 -2075,2 5,217 51,459 -224,495l-6632 -23c-178,-85 -105,-454 -122,-472 -75,-75 -1855,55 -2112,3 -112,4 -328,168 -351,264l0 0zm7134 5287c-1259,114 -2360,1029 -2671,2255 -616,2421 1695,4505 4045,3634 136,-51 609,-315 667,-315 154,0 236,230 361,197 41,-11 593,-555 600,-596 17,-97 -221,-149 -202,-360 11,-116 305,-578 371,-783 683,-2115 -947,-4233 -3171,-4032l0 0zm-5780 686l0 903 903 0 0 -903 -903 0zm3408 0l-2053 0 0 903 1519 0 172 -382 362 -521 0 0zm-2505 1396l-903 0 0 944 903 0 0 -944zm1766 0l-1314 0 0 944 1190 0c-21,-321 42,-637 124,-944zm-1766 1395l-903 0 0 945 903 0 0 -945zm1889 945c-50,-221 -128,-436 -187,-655 -27,-101 10,-223 -80,-290l-1170 0 0 945 1437 0zm-1889 1395l0 -882c0,-4 -57,-61 -61,-61l-780 0c-4,0 -61,57 -61,61l0 882 903 0 -1 0zm2956 0c-319,-280 -583,-607 -842,-944l-1663 0 0 944 2505 0 0 0zm5157 -161c-63,87 -409,283 -392,381 7,42 534,566 590,604 162,108 380,-216 471,-346 -97,-90 -597,-653 -669,-640l0 1zm1234 823c-208,215 -608,471 -770,712 -25,38 -53,65 -34,116 314,239 1435,1655 1709,1706 53,10 84,5 135,-11 115,-35 743,-638 690,-815l-1614 -1675 -116 -34 0 1zm-9593 2581l0 -1292c0,-179 -248,-472 -431,-472l-1252 0 1683 1765 0 -1z"/>
  <path class="fil0" d="M2699 5852l5041 -10c372,23 350,465 0,494l-4927 0c-300,-15 -378,-341 -114,-485l0 1z"/>
  <path class="fil0" d="M7956 6961c129,130 21,409 -173,403l-5011 -2c-299,17 -325,-430 -42,-454 1622,105 3408,-134 5012,0 63,5 168,7 214,52l0 1z"/>
  <path class="fil0" d="M2658 4825l3237 -11c287,35 287,421 0,456 -988,-88 -2158,110 -3123,-1 -324,-38 -278,-396 -114,-444z"/>
  <path class="fil0" d="M11737 11691c0,1477 -1197,2675 -2675,2675 -1477,0 -2675,-1198 -2675,-2675 0,-1477 1198,-2675 2675,-2675 1478,0 2675,1198 2675,2675zm-484 -3c0,-1214 -984,-2197 -2197,-2197 -1214,0 -2197,983 -2197,2197 0,1213 983,2197 2197,2197 1213,0 2197,-984 2197,-2197z"/>
  <path class="fil0" d="M7770 11477c284,-284 858,625 990,602l1300 -1330c276,-97 462,165 268,391 -323,207 -1254,1459 -1531,1512 -116,22 -189,-52 -275,-119 -254,-197 -490,-519 -763,-715 -66,-73 -50,-280 12,-341l-1 0z"/>
 </g>
</svg>
