<?xml version="1.0" encoding="UTF-8"?>
<!DOCTYPE svg PUBLIC "-//W3C//DTD SVG 1.1//EN" "http://www.w3.org/Graphics/SVG/1.1/DTD/svg11.dtd">
<!-- Creator: CorelDRAW X7 -->
<svg xmlns="http://www.w3.org/2000/svg" xml:space="preserve" width="210mm" height="210.499mm" version="1.1" style="shape-rendering:geometricPrecision; text-rendering:geometricPrecision; image-rendering:optimizeQuality; fill-rule:evenodd; clip-rule:evenodd"
viewBox="0 0 21000 21050"
 xmlns:xlink="http://www.w3.org/1999/xlink">
 <defs>
  <style type="text/css">
   <![CDATA[
    .fil0 {fill:#FEFEFE}
   ]]>
  </style>
 </defs>
 <g id="Layer_x0020_1">
  <metadata id="CorelCorpID_0Corel-Layer"/>
  <g id="_2038838264496">
   <path class="fil0" d="M3885 21000l-3885 0 0 -5775c530,-424 1374,-504 2042,-530 536,-21 2607,41 2841,530l49 5090 -377 462 -670 223zm314 -4830c-1124,296 -2337,297 -3463,0 35,233 -53,561 -5,770 74,322 3399,322 3473,0 49,-209 -40,-538 -5,-770zm0 1575c-1139,247 -2327,303 -3463,0 39,224 -59,585 -7,775 64,236 3095,244 3404,69 162,-91 25,-658 66,-845l0 1zm0 1575c-1142,227 -2317,222 -3464,0 40,225 -59,585 -7,775 64,236 3095,242 3404,69 161,-91 25,-658 66,-845l1 1z"/>
   <path class="fil0" d="M21000 15225l0 5775c-1214,-115 -2708,156 -3885,0 -340,-45 -972,-288 -1048,-685l49 -5090c234,-489 2305,-550 2841,-530 669,26 1512,106 2042,530l1 0zm-736 945c-1124,296 -2337,297 -3463,0 35,233 -53,561 -5,770 74,322 3399,322 3473,0 49,-209 -40,-538 -5,-770zm0 1575c-1145,292 -2317,256 -3464,0 40,224 -59,585 -7,775 64,236 3095,244 3404,69 161,-91 25,-658 66,-845l1 1zm0 1575c-1141,227 -2318,209 -3464,0 40,225 -59,585 -7,775 64,236 3095,242 3404,69 161,-91 25,-658 66,-845l1 1z"/>
   <path class="fil0" d="M3885 0c398,184 904,150 1047,686l-49 5090c-233,486 -2308,554 -2841,530 -656,-29 -1515,-129 -2042,-530l0 -5776 3885 0zm315 1470c-1147,154 -2317,154 -3465,0 25,263 -118,711 177,820 534,199 2566,184 3113,2 285,-94 152,-574 175,-823l0 1zm0 1575c-1153,145 -2314,145 -3466,0 -200,960 423,900 1203,950 473,31 1663,9 2089,-125 279,-87 152,-585 173,-825l1 0zm0 1575c-1156,134 -2309,134 -3466,0 28,205 -45,481 -4,666 80,350 3279,339 3454,54 78,-125 -19,-536 15,-720l1 0z"/>
   <path class="fil0" d="M17010 0l3990 0 0 5775c-527,401 -1387,500 -2042,530 -533,24 -2608,-44 -2840,-530l-50 -5090c119,-482 590,-492 943,-685l-1 0zm3255 1470c-1147,154 -2317,154 -3465,0 25,263 -118,711 177,820 523,195 2588,195 3111,0 295,-110 152,-557 177,-820zm0 1575c-1153,145 -2314,145 -3466,0 -200,960 423,900 1203,950 473,31 1663,9 2089,-125 279,-87 152,-585 173,-825l1 0zm0 1575c-1157,134 -2310,134 -3466,0 28,205 -45,481 -4,666 32,143 1092,273 1312,283 415,20 1628,-11 1985,-124 276,-86 152,-588 172,-826l1 1z"/>
   <path class="fil0" d="M7245 5251c-141,346 -144,836 -109,1211 32,351 297,850 167,1098 -109,208 -491,229 -684,372 -232,172 -405,458 -641,618 -198,135 -888,308 -833,530 238,250 739,231 933,538 244,383 14,931 196,1380 156,385 845,693 949,1152 -80,827 -137,1709 -391,2486 27,113 1146,859 1331,885 298,43 1177,-547 1849,-500 860,60 1417,875 1586,898 155,22 978,-271 1179,-360 1413,-628 2610,-1997 3026,-3485 126,-453 436,-2311 58,-2582 -259,-187 -707,197 -1001,168 -265,-26 -309,-351 -580,-316 272,831 -108,1150 -945,1050 102,314 654,301 789,522 340,558 -542,1214 -736,1681 -175,420 -103,880 -272,1303 -274,681 -1529,1670 -2198,958 -528,-565 -481,-2008 -741,-2777 -1910,200 -2910,-1097 -1985,-2842 929,188 146,1227 515,1740 217,302 742,271 925,387 105,67 106,283 448,445 370,176 806,24 839,52 96,82 269,1993 501,2387 53,91 -36,174 167,120 994,-263 828,-1374 1095,-2058 102,-259 655,-833 647,-924 -8,-84 -923,-468 -844,-1365 78,-896 914,-421 953,-471 16,-20 3,-333 81,-498 457,-974 1470,-13 2230,-343 -150,-439 -353,-841 -606,-1231 -253,-389 -1149,-1210 -1229,-1395 -113,-257 6,-578 -159,-838 1902,839 3088,3387 3051,5409 -150,8186 -12750,7966 -12612,-217 32,-1931 1226,-4403 3051,-5193l0 5zm-946 8819c-195,-455 277,-1409 195,-1709 -92,-338 -861,-635 -1010,-1414 -53,-281 109,-1127 -391,-972 -370,116 18,1782 105,2098 198,724 567,1463 1100,1996l1 1z"/>
   <path class="fil0" d="M10376 3384c1510,-57 2972,1212 2967,2757 -4,1370 -1965,3648 -2480,4984 -182,294 -538,301 -727,0 -505,-1345 -2418,-3505 -2478,-4877 -65,-1476 1268,-2810 2718,-2865l0 1zm227 6801c531,-1751 3305,-3964 1159,-5620 -1629,-1256 -4030,391 -3104,2474 357,803 1220,2245 1712,3011 66,102 -11,188 234,134l-1 1z"/>
   <path class="fil0" d="M14667 11771c1283,193 -396,2326 -862,1566 -267,-437 257,-509 423,-738 193,-267 95,-683 439,-828z"/>
   <circle class="fil0" cx="10500" cy="6069" r="1187"/>
  </g>
 </g>
</svg>
