<?xml version="1.0" encoding="UTF-8"?>
<!DOCTYPE svg PUBLIC "-//W3C//DTD SVG 1.1//EN" "http://www.w3.org/Graphics/SVG/1.1/DTD/svg11.dtd">
<!-- Creator: CorelDRAW X7 -->
<svg xmlns="http://www.w3.org/2000/svg" xml:space="preserve" width="163.351mm" height="158.993mm" version="1.1" style="shape-rendering:geometricPrecision; text-rendering:geometricPrecision; image-rendering:optimizeQuality; fill-rule:evenodd; clip-rule:evenodd"
viewBox="0 0 16335 15899"
 xmlns:xlink="http://www.w3.org/1999/xlink">
 <defs>
  <style type="text/css">
   <![CDATA[
    .fil0 {fill:#FEFEFE}
   ]]>
  </style>
 </defs>
 <g id="Layer_x0020_1">
  <metadata id="CorelCorpID_0Corel-Layer"/>
  <g id="_2624766441296">
   <path class="fil0" d="M11337 12996l739 -1098c955,-98 1920,-66 2878,-127 -39,430 384,2897 262,3092 -32,51 -1031,573 -1079,525 7,-525 -58,-1057 -146,-1575 -600,612 -1359,1128 -2149,1468 -2685,1159 -5794,661 -7974,-1264 -163,-143 -725,-681 -793,-843 -29,-68 -51,-73 13,-124 153,-127 765,-649 882,-686 165,-51 136,83 245,195 2399,2486 6167,2826 8753,435l-1634 0 3 2z"/>
   <path class="fil0" d="M10608 3955c-59,-8 -311,-81 -350,-117 -309,-724 -973,-1476 -1267,-2178 -31,-73 -70,-136 -19,-216l2112 -1444 1361 423c-2,68 -996,649 -1149,770 -39,30 -163,44 -73,134 26,27 576,175 721,243 3279,1548 5010,5034 4188,8604 -43,185 -172,722 -250,856 -36,63 -44,95 -131,97 -54,0 -919,-318 -987,-360 -39,-24 -80,-34 -92,-85 104,-508 274,-996 337,-1516 319,-2574 -1045,-5151 -3356,-6313 -175,-87 -479,-243 -661,-213 160,386 702,918 814,1285 51,168 -83,30 -88,30 -335,0 -792,41 -1108,0l-2 0z"/>
   <path class="fil0" d="M20 9292c10,-36 61,-75 119,-63 168,39 1296,736 1340,676 -725,-3666 1414,-7440 4960,-8602 180,-59 1007,-316 1111,-241l231 1230c-3420,527 -5773,4066 -5017,7438l1050 -1517c149,-24 90,12 122,80 78,173 418,1106 403,1227l-1575 2224 -2741 -1317c51,-316 -71,-855 0,-1137l-3 2z"/>
   <path class="fil0" d="M8712 10080c503,483 1344,422 1947,167 396,-170 1256,-892 1584,-872 329,19 -17,525 -116,649 -1150,1443 -2197,1186 -3792,1341 -204,20 -863,219 -936,214 -97,-10 -1106,-1324 -1130,-1480 -31,-207 357,-421 525,-503 1106,-542 2645,-151 3843,-212 58,282 -285,700 -554,700l-1371 0 0 -4z"/>
   <path class="fil0" d="M10010 6443c0,0 -15,-99 -46,-102 -115,-7 -606,161 -815,178 -500,39 -1091,-17 -1543,-234 -146,645 797,518 1225,584l0 175c-423,36 -826,-46 -1225,-175 -148,624 809,551 1225,583l0 175c-416,17 -841,0 -1225,-175 -114,486 216,528 620,576 294,37 637,-129 547,241 -397,22 -781,-114 -1167,-175 -100,586 783,432 1167,525l0 175c-246,34 -1148,-68 -1289,-258 -68,-90 -85,-408 -89,-542 -44,-982 111,-2078 34,-3082 4,-287 456,-384 687,-420 421,-66 2008,-129 2113,423 41,218 31,1101 4,1344 -14,129 -60,272 -223,182l0 2zm-15 -1322c-775,229 -1633,234 -2391,-58 -151,556 430,605 845,642 226,19 1439,-27 1539,-183 44,-65 -12,-301 7,-401l0 0zm0 584c-727,260 -1662,262 -2391,0 0,172 -44,323 119,435 286,194 1290,194 1652,141 414,-61 730,-81 620,-576z"/>
   <path class="fil0" d="M9983 6597c348,-42 1684,-10 1850,333 56,114 51,1805 0,1925 -158,350 -1293,376 -1636,352 -233,-17 -1001,-136 -1106,-352 -56,-115 -49,-1838 7,-1928 105,-170 681,-306 885,-330zm1704 624c-724,302 -1648,214 -2392,0 -87,498 156,503 562,576 406,73 921,83 1329,0 408,-82 576,-119 501,-578l0 2zm0 642c-771,262 -1616,231 -2392,0 3,248 -158,318 117,437 406,178 1845,234 2192,-26 112,-83 0,-294 80,-411l3 0zm-58 642c-788,199 -1592,233 -2363,-59 -68,0 -34,253 22,328 207,273 1957,282 2246,78 126,-87 95,-204 92,-345l3 -2z"/>
   <rect class="fil0" transform="matrix(0.831567 -0.555425 0.555425 0.831567 4673.03 11023)" width="1507" height="1942"/>
  </g>
 </g>
</svg>
