<?xml version="1.0" encoding="UTF-8"?>
<!DOCTYPE svg PUBLIC "-//W3C//DTD SVG 1.1//EN" "http://www.w3.org/Graphics/SVG/1.1/DTD/svg11.dtd">
<!-- Creator: CorelDRAW X7 -->
<svg xmlns="http://www.w3.org/2000/svg" xml:space="preserve" width="210mm" height="297mm" version="1.1" style="shape-rendering:geometricPrecision; text-rendering:geometricPrecision; image-rendering:optimizeQuality; fill-rule:evenodd; clip-rule:evenodd"
viewBox="0 0 21000 29700"
 xmlns:xlink="http://www.w3.org/1999/xlink"
 data-name="Layer 1">
 <defs>
  <style type="text/css">
   <![CDATA[
    .fil0 {fill:#FEFEFE}
   ]]>
  </style>
 </defs>
 <g id="Layer_x0020_1">
  <metadata id="CorelCorpID_0Corel-Layer"/>
  <g id="_2624767532240">
   <path class="fil0" d="M13337 14529c-715,540 -1472,1186 -2205,1680 -79,53 -172,140 -257,49l-824 -1098 -38 -23c-240,181 -480,361 -720,542 -47,36 -99,72 -138,102 -687,519 -1365,1050 -2056,1564 -79,21 -110,-7 -158,-61 -116,-130 -239,-310 -331,-443 -56,-82 -134,-134 -48,-242l3568 -2700c40,-12 93,-12 126,14 167,223 329,451 498,674 99,129 203,290 315,411 20,23 46,66 74,46l2454 -1862c16,-36 -315,-422 -356,-485 -22,-58 -11,-149 55,-171l2110 -266c119,2 140,76 112,179 -288,593 -488,1267 -780,1852 -49,96 -84,178 -206,102 -123,-120 -228,-350 -346,-460 -12,-11 -18,-28 -39,-24 -266,212 -539,415 -811,620l1 0zm1899 -2010l-1680 194c49,185 506,458 227,606l-2646 2007c-35,9 -82,6 -112,-17 -279,-381 -569,-751 -852,-1128l-30 -12 -3336 2555 266 347 34 -9 2922 -2201 60 3c281,317 519,677 779,1014 20,26 36,45 51,65 20,26 51,44 54,81l22 -2c1048,-787 2084,-1591 3138,-2371 41,-23 71,-27 112,-3 71,42 238,333 313,411 13,13 11,15 34,10l646 -1551 -2 1z"/>
   <path class="fil0" d="M9373 9756l84 497c58,-9 292,133 309,131 66,-10 307,-262 403,-271 21,6 301,286 309,306 12,26 10,53 9,81l-30 -14c-26,81 -251,312 -242,373 8,61 115,220 121,304l474 80 2 475 -498 94c3,70 -106,226 -99,275 4,27 200,282 235,331 18,25 47,15 38,59 0,14 -9,24 -16,34 -12,21 -274,282 -292,290 -28,13 -35,6 -60,-4 -69,-28 -321,-262 -360,-255 -50,47 -292,112 -314,154 -38,72 -48,446 -88,478l-459 -8c-31,-9 -59,-385 -78,-442 -16,-49 -278,-120 -340,-155 -136,84 -254,199 -393,272 -40,-1 -280,-261 -323,-307l-5 -36c28,-51 270,-362 266,-384 -18,-77 -133,-206 -132,-309l-490 -80 -2 -474 478 -90c24,-131 88,-247 151,-361 -38,-62 -283,-358 -271,-403 5,-21 286,-302 305,-311 23,-10 39,-8 60,4 70,43 319,270 381,260 69,-11 212,-116 304,-120l81 -473 482 -1 0 0zm-830 2300c441,418 1208,253 1355,-361 169,-712 -478,-1263 -1148,-986 -542,224 -623,954 -207,1347l0 0z"/>
   <path class="fil0" d="M14073 15037l1466 0c0,0 0,4903 0,4903l-1466 0c0,0 0,-4903 0,-4903zm1245 228l-1018 0 0 4458 1018 0 0 -4458z"/>
   <path class="fil0" d="M7651 12316c-32,26 -108,70 -117,101 -4,15 8,184 13,204 3,16 268,118 304,143 28,43 -78,271 -78,336 -59,4 -315,-57 -348,-33 -9,6 -136,177 -137,188 -10,73 128,292 95,344 -8,13 -240,104 -271,141 -40,10 -183,-253 -235,-261 -51,-7 -165,44 -232,29 -31,37 -120,293 -134,302 -24,15 -301,-57 -327,-77 -43,-31 52,-295 14,-357 -6,-12 -175,-128 -193,-128 -78,-1 -229,97 -316,103 -14,-6 -148,-243 -154,-266 -6,-24 -2,-43 13,-61 48,-31 195,-118 223,-156 15,-19 5,-281 -5,-297 -12,-20 -263,-119 -305,-142l84 -328c24,-20 330,54 355,40 10,-7 154,-182 155,-194 5,-48 -133,-288 -106,-330 82,-10 208,-131 272,-141 51,-8 177,216 219,252 36,31 201,-16 264,-2l142 -306c53,8 318,70 326,107 12,55 -57,261 -43,319 2,11 152,148 166,158 52,33 303,-133 356,-83 46,44 95,214 151,267 -41,55 -101,86 -152,128l1 0zm-413 298c0,-321 -260,-582 -581,-582 -321,0 -582,261 -582,582 0,321 261,581 582,581 321,0 581,-260 581,-581z"/>
   <path class="fil0" d="M13703 15927l0 4014c0,0 -1472,0 -1472,0l0 -4014c0,0 1472,0 1472,0zm-227 218l-1018 0 0 3578 1018 0 0 -3578 0 0z"/>
   <path class="fil0" d="M11861 16654l0 3280c0,0 -1455,0 -1455,0l0 -3280c0,0 1455,0 1455,0zm-1228 226l0 2844 1001 0 0 -2844 -1001 0z"/>
   <path class="fil0" d="M8641 17562l1290 -4c66,5 107,75 105,137 -48,676 61,1435 0,2102 -4,46 -10,97 -50,128l-1317 8c-37,-1 -76,-16 -93,-52 -28,-736 -3,-1480 -12,-2219 0,-46 41,-78 76,-101l1 1zm150 223l0 1938 1018 0 0 -1938 -1018 0z"/>
   <path class="fil0" d="M6760 19913c-18,-18 -19,-59 -21,-84 -28,-331 -24,-873 -10,-1209 3,-64 23,-137 99,-141l1277 0c70,3 84,62 89,121 36,396 -29,844 0,1245 -3,57 -50,94 -105,89 -403,-28 -847,33 -1246,0 -25,-2 -66,-3 -84,-21l1 0zm1207 -1207l-1017 0 0 1018 1017 0 0 -1018z"/>
  </g>
 </g>
</svg>
