<?xml version="1.0" encoding="UTF-8"?>
<!DOCTYPE svg PUBLIC "-//W3C//DTD SVG 1.1//EN" "http://www.w3.org/Graphics/SVG/1.1/DTD/svg11.dtd">
<!-- Creator: CorelDRAW X7 -->
<svg xmlns="http://www.w3.org/2000/svg" xml:space="preserve" width="155.343mm" height="190.802mm" version="1.1" style="shape-rendering:geometricPrecision; text-rendering:geometricPrecision; image-rendering:optimizeQuality; fill-rule:evenodd; clip-rule:evenodd"
viewBox="0 0 15556 19107"
 xmlns:xlink="http://www.w3.org/1999/xlink">
 <defs>
  <style type="text/css">
   <![CDATA[
    .fil0 {fill:#FEFEFE}
   ]]>
  </style>
 </defs>
 <g id="Layer_x0020_1">
  <metadata id="CorelCorpID_0Corel-Layer"/>
  <g id="_2038836153232">
   <path class="fil0" d="M12979 2556c171,176 365,328 356,588l-3 7144c640,255 1303,449 1973,610 178,101 216,377 229,562 204,2711 -1035,5433 -3220,7022 -202,146 -912,640 -1124,624 -130,-10 -731,-400 -877,-499 -795,-547 -1473,-1249 -2020,-2042l-7417 0c-502,-41 -847,-406 -876,-909l0 -14745c44,-523 421,-885 945,-911l9275 6 279 99c799,843 1666,1623 2478,2452l2 -1zm-3081 -1867l-8986 0c-87,0 -255,180 -226,289 23,4916 -35,9840 28,14751 12,29 116,146 129,146l7027 0c-464,-860 -743,-1801 -890,-2769 -453,-36 -908,-4 -1362,-13 -81,-1 -156,-36 -238,-37 -694,-11 -1613,82 -2270,3 -184,-22 -338,-162 -380,-342 -74,-322 -44,-1664 -14,-2046 77,-1011 823,-1223 1641,-1521 107,-40 714,-203 731,-237 168,-315 -107,-500 -232,-761 -54,-113 -116,-386 -166,-452 -37,-49 -166,-89 -240,-172 -169,-189 -246,-524 -258,-773 -19,-391 258,-1442 435,-1801 738,-1491 2794,-1715 3845,-417 347,430 522,1064 680,1588 108,361 83,1068 -165,1369 -77,94 -252,173 -284,214 -35,48 -75,257 -117,347 -51,109 -325,528 -331,560 -4,28 86,298 103,313 502,169 1130,300 1584,564 83,49 262,222 322,227 148,13 652,-456 812,-516 299,-114 656,259 906,414 212,129 434,256 664,349l1 -6563 -2526 0c-63,0 -223,-192 -223,-257l0 -2457zm687 515l0 1512 1512 0 -1512 -1512 0 0zm-7182 9398l0 1770 3539 34c41,-331 -126,-1256 154,-1479 830,-248 1683,-438 2457,-840 0,-45 -659,-274 -756,-308 -198,-69 -920,-239 -1007,-373 -94,-143 -293,-836 -256,-996 24,-106 349,-461 434,-666 65,-159 90,-404 161,-525 139,-235 350,16 393,-467 34,-398 -79,-309 -149,-537 -85,-275 -53,-518 -195,-836 -598,-1356 -2485,-1329 -3007,53 -108,289 -78,487 -136,757 -31,151 -151,211 -157,229 -23,91 0,516 53,593 53,78 253,63 339,211 72,120 96,366 162,525 34,82 84,172 132,246 183,295 359,297 295,706 -33,206 -174,710 -363,806 -276,141 -764,239 -1083,360 -344,130 -942,315 -1014,738l4 -1zm11440 879c-1290,-279 -2511,-810 -3623,-1513 -1092,714 -2312,1222 -3586,1513 -93,1406 153,2738 803,3983 527,1011 1433,2040 2398,2653 88,55 354,245 436,216 186,-64 668,-429 843,-568 1896,-1501 2896,-3860 2729,-6284z"/>
   <path class="fil0" d="M2055 2072c317,-53 1761,-53 2078,0 418,70 408,637 43,680 -668,-43 -1355,47 -2021,20 -561,-22 -527,-629 -100,-700l0 0z"/>
   <path class="fil0" d="M10256 13800c284,305 538,639 827,943l1425 -2046c366,-254 736,70 511,476 -437,786 -1167,1568 -1630,2357 -117,165 -345,182 -496,56l-1435 -1658c-102,-188 -3,-453 218,-488 313,-52 395,164 580,360l0 0z"/>
  </g>
 </g>
</svg>
