<?xml version="1.0" encoding="UTF-8"?>
<!DOCTYPE svg PUBLIC "-//W3C//DTD SVG 1.1//EN" "http://www.w3.org/Graphics/SVG/1.1/DTD/svg11.dtd">
<!-- Creator: CorelDRAW X7 -->
<svg xmlns="http://www.w3.org/2000/svg" xml:space="preserve" width="210mm" height="210mm" version="1.1" style="shape-rendering:geometricPrecision; text-rendering:geometricPrecision; image-rendering:optimizeQuality; fill-rule:evenodd; clip-rule:evenodd"
viewBox="0 0 21000 21000"
 xmlns:xlink="http://www.w3.org/1999/xlink">
 <defs>
  <style type="text/css">
   <![CDATA[
    .fil0 {fill:#FEFEFE}
   ]]>
  </style>
 </defs>
 <g id="Layer_x0020_1">
  <metadata id="CorelCorpID_0Corel-Layer"/>
  <g id="_2038968910224">
   <path class="fil0" d="M12223 1c536,201 502,770 569,1256 44,314 64,638 91,955 641,143 1218,457 1820,702 534,-336 982,-866 1564,-1105 192,-24 400,6 551,138 627,764 1648,1473 2235,2236 565,733 -690,1523 -963,2154 261,579 581,1153 697,1782 536,94 1225,66 1739,210 260,73 324,206 474,407l0 3528c-129,205 -229,339 -474,407 -518,144 -1200,119 -1739,210 -116,629 -437,1203 -697,1782 5,168 919,1119 1046,1414 104,241 100,537 -83,741 -761,641 -1452,1605 -2215,2214 -227,182 -421,212 -707,132l-1428 -1078c-380,145 -737,336 -1116,484 -156,61 -680,168 -707,318 -81,448 -73,1610 -347,1909 -86,93 -210,130 -310,203l-3445 0c-158,-115 -350,-219 -423,-417l-238 -1793c-622,-164 -1218,-422 -1780,-731 -525,360 -989,857 -1561,1134 -268,37 -430,-21 -634,-182 -487,-384 -1746,-1645 -2133,-2132 -147,-184 -226,-333 -204,-576 37,-422 1133,-1458 1134,-1640 -281,-568 -567,-1140 -719,-1761 -503,-108 -1034,-99 -1538,-193 -360,-67 -533,-188 -682,-528l0 -3363c149,-340 322,-461 682,-528 198,-37 1494,-130 1538,-193 152,-620 437,-1193 719,-1761 -2,-195 -1095,-1210 -1134,-1641 -25,-271 81,-417 245,-615 435,-525 1526,-1625 2052,-2051 257,-208 532,-327 848,-150l1388 1059c572,-287 1151,-574 1778,-729 138,-495 44,-1586 353,-1964 91,-112 201,-161 309,-245l3445 0 0 1zm-3354 20457l3249 7 350 -2029 2211 -942c102,-11 186,59 265,109 466,297 912,773 1383,1080l120 2 2251 -2267c57,-211 -1173,-1396 -1187,-1715 -2,-49 3,-98 22,-144 390,-625 633,-1324 848,-2023l188 -140 1827 -224c64,-17 104,-70 111,-135l-19 -3137c-29,-58 -73,-61 -126,-78 -488,-151 -1250,-83 -1757,-213 -327,-83 -358,-618 -474,-919 -75,-195 -156,-391 -240,-581 -126,-283 -468,-695 -330,-972 222,-442 871,-964 1096,-1407 30,-59 70,-108 28,-176l-2266 -2253c-192,-50 -1432,1206 -1714,1208 -108,0 -677,-339 -842,-411 -431,-189 -879,-336 -1326,-479 -88,-45 -120,-139 -139,-230 -112,-509 -90,-1137 -192,-1654 -21,-103 -41,-229 -168,-243 -957,58 -2008,-80 -2953,-3 -63,5 -144,6 -197,40 -136,86 -198,1737 -312,1995 -48,50 -92,99 -156,131 -290,138 -744,221 -1075,360 -248,105 -875,497 -1084,470 -49,-6 -80,-25 -121,-46 -439,-220 -971,-874 -1407,-1095 -59,-30 -109,-71 -176,-28l-2239 2274c-45,203 1209,1460 1209,1706 0,102 -393,792 -468,965 -166,385 -292,784 -414,1185l-211 158 -1830 221c-71,25 -96,153 -106,223 -81,620 -57,2098 -5,2745 9,118 37,234 61,349l2012 326 957 2205c16,104 -72,187 -124,269 -149,237 -1086,1302 -1085,1444 0,37 27,70 48,99l2233 2202 138 -30 1402 -1102c47,-34 105,-64 163,-64 149,0 769,367 966,452 405,174 825,301 1244,437 57,34 82,86 99,148 110,422 110,1046 179,1502 14,93 40,380 86,426l-3 2z"/>
   <path class="fil0" d="M11279 7999l1518 0 531 -1540c-99,-186 -281,-285 -375,-483 -512,-1082 811,-2108 1731,-1320 724,619 363,1759 -565,1938 -81,16 -258,-5 -292,16 -83,52 -457,1520 -680,1760 -26,27 -146,121 -166,121l-1702 0 0 1764 2994 0c267,-1241 2116,-1082 2176,183 64,1347 -1863,1617 -2176,309l-2994 0 0 1764 1702 0c20,0 141,93 166,121 223,240 597,1708 680,1761 34,20 210,0 292,16 943,182 1287,1345 543,1957 -912,748 -2216,-268 -1709,-1339 94,-199 276,-298 375,-483l-531 -1540 -1518 0 0 3506c0,32 -348,438 -409,493 -1231,1097 -3355,518 -3693,-1129 -1362,580 -2820,-842 -1969,-2153 -529,-398 -762,-1046 -585,-1694 39,-144 219,-443 220,-521 1,-134 -187,-507 -208,-740 -64,-700 195,-1446 740,-1888 -70,-163 -182,-273 -256,-442 -413,-953 215,-2043 1236,-2162 -4,-636 312,-1073 784,-1452 290,-233 391,-554 694,-823 854,-761 2245,-746 3077,41 55,52 369,423 369,452l0 3506 0 1zm-2102 -3271c105,109 62,387 -102,433 -148,43 -464,-131 -651,-152 -755,-85 -1493,430 -1570,1202 31,123 692,38 651,451 -41,412 -449,135 -638,109 -1002,-136 -1777,823 -1142,1675 120,160 344,246 305,474 -24,137 -322,312 -432,432 -580,637 -594,1572 -78,2252 138,182 584,434 303,679 -214,187 -487,-118 -635,-264 -280,503 5,1183 513,1414 223,101 813,105 626,503 -152,322 -611,-71 -745,117 -127,176 -131,551 -65,754 199,608 951,817 1498,555 161,-77 284,-265 491,-165 143,69 134,442 176,602 363,1393 2246,1698 3063,545l-20 -11749c-641,-782 -1891,-884 -2604,-145 248,57 879,93 1056,277l0 1zm5371 762c0,-328 -265,-593 -593,-593 -327,0 -593,265 -593,593 0,327 266,592 593,592 328,0 593,-265 593,-592zm1384 5011c0,-327 -265,-592 -591,-592 -327,0 -591,265 -591,592 0,326 264,591 591,591 326,0 591,-265 591,-591zm-1386 5011c0,-327 -265,-593 -592,-593 -328,0 -593,266 -593,593 0,328 265,593 593,593 327,0 592,-265 592,-593z"/>
   <path class="fil0" d="M7794 10624c-99,302 -100,564 20,860 78,195 318,341 186,558 -241,398 -574,-141 -666,-365 -117,-284 -147,-599 -111,-905 13,-118 157,-456 151,-490 -14,-74 -189,-283 -220,-435 -59,-285 10,-1210 464,-998 303,142 -10,534 12,765 51,549 759,773 1228,620 217,-71 436,-361 640,-106 223,280 -227,507 -447,585 -400,143 -881,100 -1259,-89l2 0z"/>
   <path class="fil0" d="M8438 14117c140,-42 283,66 323,197 39,124 -84,255 -103,394 -90,688 636,982 1209,798 167,-53 568,-373 666,-56 63,203 -18,288 -168,390 -902,612 -2386,1 -2232,-1166 20,-158 135,-507 305,-557l0 0z"/>
   <path class="fil0" d="M9096 5754c329,-37 654,20 939,187 178,104 358,209 239,458 -146,305 -552,-88 -782,-120 -564,-78 -1187,232 -1081,876 18,110 113,197 120,293 19,280 -370,400 -541,46 -390,-812 284,-1646 1106,-1739l0 -1z"/>
   <path class="fil0" d="M9506 13321c-180,180 -640,-184 -915,-197 -498,-22 -1006,343 -918,881 28,171 197,253 81,455 -251,438 -580,-164 -612,-457 -118,-1058 1075,-1608 1975,-1279 210,77 641,344 389,596l0 1z"/>
  </g>
 </g>
</svg>
