<?xml version="1.0" encoding="UTF-8"?>
<!DOCTYPE svg PUBLIC "-//W3C//DTD SVG 1.1//EN" "http://www.w3.org/Graphics/SVG/1.1/DTD/svg11.dtd">
<!-- Creator: CorelDRAW X7 -->
<svg xmlns="http://www.w3.org/2000/svg" xml:space="preserve" width="125.789mm" height="117.713mm" version="1.1" style="shape-rendering:geometricPrecision; text-rendering:geometricPrecision; image-rendering:optimizeQuality; fill-rule:evenodd; clip-rule:evenodd"
viewBox="0 0 12599 11790"
 xmlns:xlink="http://www.w3.org/1999/xlink">
 <defs>
  <style type="text/css">
   <![CDATA[
    .fil0 {fill:#FEFEFE}
   ]]>
  </style>
 </defs>
 <g id="Layer_x0020_1">
  <metadata id="CorelCorpID_0Corel-Layer"/>
  <g id="_2624766394352">
   <path class="fil0" d="M12193 8156c76,72 306,5 373,191 32,87 45,921 19,1008 -15,54 -481,99 -586,579 -52,244 178,315 157,450 -8,56 -722,770 -778,778 -132,19 -233,-191 -380,-179 -30,2 -554,177 -574,201 -64,76 25,361 -10,401 -35,40 -958,18 -1067,-17 -279,-88 -60,-362 -77,-387 -20,-30 -627,-294 -663,-291 -112,9 -252,279 -308,280 -56,1 -756,-732 -764,-785 -17,-113 389,-473 42,-863 -148,-167 -472,-37 -553,-269 -57,-162 -39,-698 39,-863 144,-309 433,-98 454,-113 30,-20 295,-627 292,-663 -12,-142 -365,-206 -237,-462 33,-65 586,-595 646,-609 212,-51 321,191 476,178 31,-2 563,-170 586,-190 20,-19 -180,-457 68,-518 139,-34 742,-16 891,25 298,83 170,363 275,439 541,393 786,-5 1032,102 58,26 605,594 612,637 19,132 -190,233 -179,380 2,30 193,539 214,560l0 0zm-2192 -1728c-10,-12 -298,-12 -308,0 -33,35 48,303 -13,398 -45,67 -1329,581 -1533,324 -58,201 219,280 193,446 -13,82 -221,297 -286,440 -78,171 -95,470 -163,561 -99,132 -341,80 -362,101 -219,202 293,212 363,304 38,51 453,1111 441,1171 -10,49 -359,466 20,325 57,-21 114,-158 242,-139 78,11 298,224 440,287 171,76 469,94 561,163 136,101 51,342 152,362 416,85 143,-249 430,-395 40,-21 793,-300 837,-311 178,-41 332,97 434,36 176,-104 -38,-264 15,-489 12,-51 384,-887 415,-942 100,-172 278,-155 291,-171 150,-192 -196,-223 -298,-366 -182,-255 -496,-1076 -321,-1385 -184,165 -1486,-257 -1536,-320 -60,-74 24,-366 -11,-403l-3 3z"/>
   <path class="fil0" d="M4434 6016l0 5774 -4434 0 0 -5774 4434 0zm-413 413l-3609 0 0 4949 3609 0 0 -4949 0 0z"/>
   <path class="fil0" d="M8867 5604l-4691 0c-414,0 19,-1418 257,-1702 719,-863 3175,-902 3972,-156 484,451 503,1246 462,1858zm-412 -413c186,-2114 -4179,-2094 -3918,0l3918 0z"/>
   <path class="fil0" d="M8040 1554c0,858 -696,1554 -1554,1554 -857,0 -1553,-696 -1553,-1554 0,-858 696,-1554 1553,-1554 858,0 1554,696 1554,1554zm-435 -23c0,-609 -495,-1104 -1104,-1104 -610,0 -1104,495 -1104,1104 0,609 494,1104 1104,1104 609,0 1104,-495 1104,-1104z"/>
   <path class="fil0" d="M1959 1944c85,-275 984,-115 1238,-156l-105 -204c210,-34 880,237 825,462 -9,39 -630,466 -670,464 -85,-5 -108,-282 -226,-311 -183,-44 -450,30 -650,2l0 3454c0,178 -412,178 -412,0l0 -3711 0 0z"/>
   <path class="fil0" d="M10362 1789c91,28 137,164 155,258 123,675 -151,1838 1,2457 19,80 201,67 210,132 25,176 -264,886 -525,713 -84,-57 -298,-512 -310,-631 -20,-193 192,-81 219,-293 85,-671 -81,-1529 -9,-2224l-1443 0c-21,0 -21,-412 0,-412 366,0 1456,-75 1701,0l1 0z"/>
   <path class="fil0" d="M5443 8413c18,10 14,161 91,180 231,54 1358,-161 1271,258 -288,471 -883,156 -1272,258 -84,22 -62,217 -117,208 -150,-25 -580,-388 -775,-464 161,-116 630,-527 802,-439l0 -1z"/>
   <path class="fil0" d="M11490 8832c0,888 -720,1607 -1607,1607 -888,0 -1608,-719 -1608,-1607 0,-888 720,-1607 1608,-1607 887,0 1607,719 1607,1607zm-445 -13c0,-640 -519,-1158 -1158,-1158 -639,0 -1158,518 -1158,1158 0,639 519,1157 1158,1157 639,0 1158,-518 1158,-1157z"/>
   <path class="fil0" d="M980 7150l2371 0c254,0 254,516 0,516l-2371 0c-158,0 -240,-424 0,-516z"/>
   <path class="fil0" d="M825 8388c-15,-15 -21,-413 0,-413l2629 0c177,0 177,413 0,413 -362,0 -2538,94 -2629,0l0 0z"/>
   <path class="fil0" d="M980 8697l1855 0c194,0 194,515 0,515l-1855 0c-158,0 -240,-423 0,-515z"/>
   <circle class="fil0" cx="9874" cy="8810" r="859"/>
  </g>
 </g>
</svg>
